<svg xmlns="http://www.w3.org/2000/svg" viewBox="0 0 180 180" fill="none">
  <defs>
    <linearGradient id="sky" x1="20" y1="10" x2="160" y2="170" gradientUnits="userSpaceOnUse">
      <stop stop-color="#d4efff"/>
      <stop offset="0.5" stop-color="#b8e4ff"/>
      <stop offset="1" stop-color="#7ec8f5"/>
    </linearGradient>
    <linearGradient id="heart" x1="55" y1="45" x2="125" y2="145" gradientUnits="userSpaceOnUse">
      <stop stop-color="#ff6b8a"/>
      <stop offset="1" stop-color="#ff4d6d"/>
    </linearGradient>
  </defs>
  <rect width="180" height="180" rx="40" fill="url(#sky)"/>
  <circle cx="135" cy="38" r="6" fill="#fff" opacity="0.9"/>
  <circle cx="42" cy="55" r="4" fill="#fff" opacity="0.7"/>
  <circle cx="148" cy="72" r="3" fill="#fff" opacity="0.5"/>
  <path
    d="M90 142s-48-35-48-63c0-16 12.5-27 27-27 10 0 18 5.5 21 13.5 3-8 11-13.5 21-13.5 14.5 0 27 11 27 27 0 28-48 63-48 63z"
    fill="url(#heart)"
  />
  <path
    d="M74 72c3.5-5 8-7.5 13-7.5"
    stroke="#fff"
    stroke-width="4"
    stroke-linecap="round"
    opacity="0.45"
  />
</svg>
