<svg xmlns="http://www.w3.org/2000/svg" viewBox="0 0 32 32" fill="none">
  <defs>
    <linearGradient id="sky" x1="4" y1="2" x2="28" y2="30" gradientUnits="userSpaceOnUse">
      <stop stop-color="#d4efff"/>
      <stop offset="0.5" stop-color="#b8e4ff"/>
      <stop offset="1" stop-color="#7ec8f5"/>
    </linearGradient>
    <linearGradient id="heart" x1="10" y1="8" x2="22" y2="26" gradientUnits="userSpaceOnUse">
      <stop stop-color="#ff6b8a"/>
      <stop offset="1" stop-color="#ff4d6d"/>
    </linearGradient>
  </defs>
  <rect width="32" height="32" rx="8" fill="url(#sky)"/>
  <circle cx="24" cy="7" r="1.2" fill="#fff" opacity="0.9"/>
  <circle cx="8" cy="10" r="0.8" fill="#fff" opacity="0.7"/>
  <path
    d="M16 25.2s-8.5-6.2-8.5-11.2c0-2.8 2.2-4.8 4.8-4.8 1.8 0 3.2 1 3.7 2.4.5-1.4 1.9-2.4 3.7-2.4 2.6 0 4.8 2 4.8 4.8 0 5-8.5 11.2-8.5 11.2z"
    fill="url(#heart)"
  />
  <path
    d="M13.2 12.8c0.6-0.9 1.4-1.3 2.2-1.3"
    stroke="#fff"
    stroke-width="0.8"
    stroke-linecap="round"
    opacity="0.45"
  />
</svg>
